<?xml version="1.0" encoding="utf-8"?>
<!-- Generator: Adobe Illustrator 26.0.0, SVG Export Plug-In . SVG Version: 6.00 Build 0)  -->
<svg version="1.1" id="Capa_1" xmlns="http://www.w3.org/2000/svg" xmlns:xlink="http://www.w3.org/1999/xlink" x="0px" y="0px"
	 viewBox="0 0 800 800" style="enable-background:new 0 0 800 800;" xml:space="preserve">
<style type="text/css">
	.st0{fill:none;stroke:#FFFFFF;stroke-width:10;stroke-linecap:round;stroke-miterlimit:10;}
	.st1{fill:none;stroke:#FFFFFF;stroke-width:20;stroke-linecap:round;stroke-miterlimit:10;}
</style>
<g id="SVGRepo_bgCarrier">
</g>
<g id="SVGRepo_tracerCarrier">
</g>
<circle class="st0" cx="400" cy="400" r="350"/>
<path class="st1" d="M232,357.2c-7,0-13.3,0-19.6,0c-10.3-0.1-17.9-5-21.1-13.8c-3.3-8.9-0.7-17.8,7.6-24.4
	c45.8-36.7,91.6-73.3,137.4-110c15.9-12.7,31.8-25.4,47.6-38.1c11.6-9.3,20.7-9.3,32.3,0c60.1,48.1,120.2,96.2,180.3,144.3
	c2.1,1.7,4.2,3.3,6.2,5.1c6.6,5.7,8.9,14.5,6.2,22.7c-2.8,8.2-10,13.8-18.8,14.1c-7.1,0.3-14.3,0.1-22,0.1c0,2.5,0,4.4,0,6.3
	c0,65.5,0,131,0,196.5c0,15.9-8.1,24-24,24c-26.3,0-52.7,0-79,0c-14.5,0-23-8.5-23-22.9c0-21.8,0.2-43.7-0.1-65.5
	c-0.4-26.7-24.2-45.7-50.4-40.6c-19.1,3.7-33.3,20.7-33.5,40.7c-0.2,21.7-0.1,43.3-0.1,65c0,14.9-8.4,23.4-23.1,23.4
	c-26.7,0-53.3,0-80,0c-14.4,0-22.9-8.6-22.9-23.1c0-65.7,0-131.3,0-197C232,361.9,232,359.9,232,357.2z"/>
</svg>
